<svg height="60" viewBox="0 0 80 48" fill="none" xmlns="http://www.w3.org/2000/svg">
	<path fill-rule="evenodd" clip-rule="evenodd" d="M37.8184 30.1106V23.6939V23.6926H41.1816C42.5682 23.6935 43.7335 23.2438 44.6776 22.3436C45.6316 21.4892 46.165 20.2608 46.1379 18.9803C46.1568 17.707 45.6244 16.4877 44.6776 15.6361C43.7418 14.7309 42.4832 14.2371 41.1816 14.2642H35.7827V30.1106H37.8184ZM37.8184 21.7468V16.2152V16.2139H41.2322C41.993 16.1925 42.7265 16.4987 43.2463 17.0547C43.7693 17.5632 44.0644 18.2616 44.0644 18.9911C44.0644 19.7205 43.7693 20.419 43.2463 20.9275C42.7201 21.4718 41.9889 21.7692 41.2322 21.7468H37.8184Z" fill="#5F6368" />
	<path fill-rule="evenodd" clip-rule="evenodd" d="M54.3917 20.1212C53.521 19.3171 52.3334 18.915 50.8288 18.915C48.896 18.915 47.4365 19.6231 46.4502 21.0392L48.2431 22.1683C48.9056 21.209 49.8055 20.7294 50.9425 20.7294C51.6675 20.7209 52.3691 20.9859 52.9074 21.4716C53.4441 21.9153 53.7528 22.5769 53.7482 23.2733V23.7386C52.966 23.2961 51.9705 23.0748 50.7617 23.0748C49.3456 23.0765 48.2136 23.4086 47.3656 24.0711C46.5177 24.7337 46.0937 25.6259 46.0937 26.7478C46.0752 27.7694 46.5184 28.7448 47.2999 29.403C48.104 30.111 49.1033 30.465 50.2977 30.465C51.697 30.465 52.818 29.8455 53.6609 28.6064H53.7494V30.111H55.6966V23.4288C55.6974 22.0279 55.2625 20.9254 54.3917 20.1212ZM48.8703 28.1196C48.4438 27.8123 48.1923 27.3177 48.1951 26.7921C48.1951 26.2016 48.472 25.7098 49.0296 25.3052C49.5817 24.9065 50.2712 24.7071 51.0981 24.7071C52.2335 24.7071 53.1185 24.96 53.7532 25.4657C53.7532 26.3204 53.4161 27.0652 52.7418 27.6999C52.1344 28.3073 51.311 28.6492 50.452 28.6507C49.8793 28.6614 49.3205 28.4738 48.8703 28.1196Z" fill="#5F6368" />
	<path d="M66.8736 19.269L60.0763 34.8903H57.975L60.4974 29.4244L56.0278 19.269H58.2405L61.4709 27.0575H61.5152L64.6571 19.269H66.8736Z" fill="#5F6368" />
	<path d="M29.5924 22.311C29.5932 21.6906 29.5407 21.0714 29.4356 20.46H20.8506V23.9661H25.7677C25.5644 25.0976 24.9076 26.097 23.9495 26.7325V29.0084H26.8841C28.6024 27.4241 29.5924 25.0812 29.5924 22.311Z" fill="#4285F4" />
	<path d="M20.8506 31.2069C23.3073 31.2069 25.3758 30.4002 26.8842 29.0094L23.9496 26.7335C23.1328 27.2873 22.0808 27.6034 20.8506 27.6034C18.4761 27.6034 16.4607 26.0027 15.74 23.8457H12.7169V26.1911C14.2622 29.266 17.4093 31.2067 20.8506 31.2069Z" fill="#34A853" />
	<path d="M15.74 23.8456C15.359 22.7153 15.359 21.4913 15.74 20.361V18.0156H12.7169C11.4244 20.5875 11.4244 23.6191 12.7169 26.191L15.74 23.8456Z" fill="#FBBC04" />
	<path d="M20.8506 16.6036C22.1488 16.5823 23.4033 17.0729 24.3428 17.9691V17.9691L26.9411 15.3708C25.2935 13.8233 23.1108 12.9737 20.8506 13.0001C17.4093 13.0003 14.2622 14.941 12.7169 18.0159L15.74 20.3613C16.4607 18.2042 18.4761 16.6036 20.8506 16.6036Z" fill="#EA4335" />
</svg>
