<svg width="102" height="65" viewBox="0 0 102 65" fill="none" xmlns="http://www.w3.org/2000/svg">
<path fill-rule="evenodd" clip-rule="evenodd" d="M56.2674 34.6589V41.0219H53.28V23.897H59.8571C61.7779 23.897 63.3031 24.3949 64.4327 25.3907C65.5624 26.3865 66.1272 27.7038 66.1272 29.3426C66.1272 31.0206 65.5742 32.3261 64.4682 33.2592C63.3621 34.1923 61.8133 34.6589 59.8217 34.6589H56.2674ZM56.181 32.15H59.7589C60.8181 32.15 61.6263 31.9007 62.1834 31.402C62.7405 30.9034 63.019 30.183 63.019 29.2407C63.019 28.3141 62.7366 27.5741 62.1716 27.0205C61.6067 26.4669 60.8299 26.1823 59.8413 26.1666H56.181V32.15ZM75.5044 39.8042C75.599 40.3534 75.7094 40.7496 75.8355 40.9928H78.7672V40.7928C78.4441 40.1102 78.2825 39.1961 78.2825 38.0506V32.3074C78.2589 30.95 77.8018 29.8967 76.9112 29.1474C76.0207 28.3981 74.8267 28.0235 73.3293 28.0235C72.3441 28.0235 71.4516 28.1961 70.6517 28.5413C69.8517 28.8865 69.2193 29.3632 68.7543 29.9712C68.2893 30.5793 68.0568 31.2325 68.0568 31.9308H70.9295C70.9295 31.4286 71.1383 31.0147 71.556 30.6891C71.9737 30.3635 72.5096 30.2007 73.1638 30.2007C73.9204 30.2007 74.4838 30.3988 74.8543 30.795C75.2247 31.1913 75.4099 31.7189 75.4099 32.378V33.2136H73.6485C71.7649 33.2136 70.3167 33.5764 69.304 34.3022C68.2913 35.028 67.7849 36.0695 67.7849 37.4269C67.7849 38.5018 68.1908 39.404 69.0026 40.1337C69.8143 40.8634 70.8625 41.2282 72.1471 41.2282C73.4711 41.2282 74.5902 40.7535 75.5044 39.8042ZM72.7132 38.9586C73.2823 38.9586 73.8177 38.8213 74.3196 38.5466C74.8215 38.2719 75.1989 37.9031 75.4518 37.44V35.0385H73.8987C72.8318 35.0385 72.0295 35.2229 71.4921 35.5918C70.9546 35.9606 70.6859 36.4825 70.6859 37.1575C70.6859 37.7069 70.8697 38.1444 71.2372 38.4701C71.6047 38.7958 72.0967 38.9586 72.7132 38.9586ZM88.157 28.2298L85.5721 36.9036L82.8816 28.2298H79.8033L84.268 40.9568L83.8567 42.0558C83.6453 42.6782 83.3574 43.1214 82.9932 43.3853C82.629 43.6492 82.0865 43.7811 81.3659 43.7811L80.8255 43.7457V45.9673C81.3268 46.1091 81.785 46.18 82.2001 46.18C84.0565 46.18 85.3724 45.1047 86.1478 42.9539L91.2 28.2298H88.157Z" fill="#212121"/>
<path fill-rule="evenodd" clip-rule="evenodd" d="M36.96 33.689V35.4704H35.387V38.2354H33.5817V35.4704H28.5315V33.8174L28.5781 33.6697L33.6545 26.3984L33.8691 26.2869H35.387V33.689H36.96ZM27.4769 36.4465V38.2354H19.44L19.4553 37.9618C19.5889 35.5698 20.418 34.5584 23.0011 32.9518C22.9982 32.9536 23.4527 32.6707 23.583 32.588C25.0084 31.6823 25.6226 30.9763 25.6226 29.8978C25.6226 28.7676 24.8297 27.9973 23.6597 27.9973C22.3066 27.9973 21.6106 29.0189 21.5725 30.6139L21.5665 30.8669H19.7872L19.7751 30.6203L19.7597 30.3013C19.7597 27.903 21.3538 26.2869 23.7237 26.2869C26.0409 26.2869 27.5748 27.7045 27.5748 29.8679C27.5748 31.8415 26.6349 32.8126 24.0048 34.3947L23.9524 34.4258L23.7821 34.5263C23.6882 34.5816 23.5848 34.6425 23.5434 34.6671C22.472 35.3035 21.9172 35.7797 21.6571 36.4465H27.4769ZM33.5817 33.6852H30.6532L33.5817 29.3711V33.6852Z" fill="black" fill-opacity="0.87"/>
<path fill-rule="evenodd" clip-rule="evenodd" d="M10.8 32.5C10.8 22.8705 18.6489 15.0552 28.32 15.0552C37.991 15.0552 45.84 22.8705 45.84 32.5C45.84 42.1296 37.991 49.9449 28.32 49.9449C18.6489 49.9449 10.8 42.1296 10.8 32.5ZM13.0248 32.5C13.0248 40.8954 19.8885 47.7297 28.32 47.7297C36.7515 47.7297 43.6152 40.8954 43.6152 32.5C43.6152 24.1047 36.7515 17.2704 28.32 17.2704C19.8885 17.2704 13.0248 24.1047 13.0248 32.5Z" fill="#8DC641"/>
</svg>
